<?xml version="1.0" encoding="utf-8"?>
<!-- Generator: Adobe Illustrator 16.0.0, SVG Export Plug-In . SVG Version: 6.00 Build 0)  -->
<!DOCTYPE svg PUBLIC "-//W3C//DTD SVG 1.0//EN" "http://www.w3.org/TR/2001/REC-SVG-20010904/DTD/svg10.dtd">
<svg version="1.0"
  id="Keys"
  xmlns="http://www.w3.org/2000/svg" xmlns:xlink="http://www.w3.org/1999/xlink"
  x="0px" y="0px"
  viewBox="66.281 37.979 96.422 72.084">
 <path id="C1" fill="#FFFFFF" stroke="#000000" d="M68.656,109.563c-1.034,0-1.875-0.885-1.875-1.973V38.493l9.081,0.008v44.406 c0,0.815,0.627,1.479,1.397,1.479h3.021v23.205c0,1.088-0.841,1.973-1.875,1.973H68.656z"/>
 <path id="C#Db1" fill="#000000" d="M85.349,38.025v44.601c0,1.088-0.854,1.979-1.897,1.979 h-6.192c-1.043,0-1.897-0.891-1.897-1.979V38.025H85.349z"/>
 <path id="D1" fill="#FFFFFF" stroke="#000000" d="M82.332,109.563c-1.034,0-1.875-0.885-1.875-1.973V84.385h2.995c0.771,0,1.397-0.663,1.397-1.479V38.5 h4.674v44.406c0,0.815,0.627,1.479,1.397,1.479h3.037v23.205c0,1.088-0.841,1.973-1.875,1.973H82.332z"/>
 <path id="D#Eb1" fill="#000000" d="M99.009,38.025v44.601c0,1.088-0.854,1.979-1.897,1.979 H90.92c-1.044,0-1.897-0.891-1.897-1.979V38.025H99.009z"/>
 <path id="E1" fill="#FFFFFF" stroke="#000000" d="M95.97,109.563c-1.034,0-1.875-0.885-1.875-1.973V84.385h3.016c0.771,0,1.397-0.663,1.397-1.479V38.501 l9.087-0.008v69.097c0,1.088-0.841,1.973-1.875,1.973H95.97z"/>
 <path id="F1" fill="#FFFFFF" stroke="#000000" d="M109.609,109.563c-1.034,0-1.875-0.885-1.875-1.973V38.494h9.069v44.403c0,0.815,0.627,1.479,1.397,1.479 h3.034v23.215c0,1.088-0.841,1.973-1.875,1.973H109.609z"/>
 <path id="F#Gb1" fill="#000000" d="M126.29,38.016v44.601c0,1.088-0.854,1.979-1.897,1.979 h-6.192c-1.044,0-1.897-0.891-1.897-1.979V38.016H126.29z"/>
 <path id="G1" fill="#FFFFFF" stroke="#000000" d="M123.286,109.563c-1.034,0-1.875-0.885-1.875-1.973V84.375h2.981c0.771,0,1.397-0.663,1.397-1.479V38.493 l4.724,0.009v44.405c0,0.815,0.627,1.479,1.397,1.479h3v23.205c0,1.088-0.841,1.973-1.875,1.973H123.286z"/>
 <path id="G#Ab1" fill="#000000" d="M140.001,38.025v44.601c0,1.088-0.854,1.979-1.897,1.979 h-6.192c-1.044,0-1.897-0.891-1.897-1.979V38.025H140.001z"/>
 <path id="A1" fill="#FFFFFF" stroke="#000000" d="M136.931,109.563c-1.034,0-1.875-0.885-1.875-1.973V84.385h3.047c0.771,0,1.397-0.663,1.397-1.479V38.5 h4.637v44.406c0,0.815,0.627,1.479,1.397,1.479h3.021v23.205c0,1.088-0.841,1.973-1.875,1.973H136.931z"/>
 <path id="A#Bb1" fill="#000000" d="M153.625,38.025v44.601c0,1.088-0.854,1.979-1.897,1.979	h-6.192c-1.044,0-1.897-0.891-1.897-1.979V38.025H153.625z"/>
 <path id="B1" fill="#FFFFFF" stroke="#000000" d="M150.577,109.563c-1.034,0-1.875-0.885-1.875-1.973V84.385h3.025c0.771,0,1.397-0.663,1.397-1.479V38.501 l9.078-0.008v69.097c0,1.088-0.841,1.973-1.875,1.973H150.577z"/>
</svg>
