<?xml version="1.0" encoding="utf-8"?>
<!-- Generator: Adobe Illustrator 24.2.3, SVG Export Plug-In . SVG Version: 6.00 Build 0)  -->
<svg version="1.0" id="Layer_1" xmlns="http://www.w3.org/2000/svg" xmlns:xlink="http://www.w3.org/1999/xlink" x="0px" y="0px"
	 viewBox="0 0 96.4 72.1" enable-background="new 0 0 96.4 72.1" xml:space="preserve">
<g id="Keys">
	<path d="M0,0v69.6c0,1.4,1.1,2.5,2.4,2.5h9.7c0.8,0,1.5-0.4,2-1.1c0.4,0.7,1.1,1.1,2,1.1h9.8c0.8,0,1.5-0.4,1.9-1.1
		c0.4,0.6,1.1,1.1,1.9,1.1h9.8c0.8,0,1.5-0.4,1.9-1.1c0.4,0.6,1.1,1.1,1.9,1.1h9.8c0.8,0,1.5-0.4,2-1.1c0.4,0.7,1.1,1.1,2,1.1h9.7
		c0.8,0,1.5-0.4,1.9-1.1c0.4,0.6,1.1,1.1,1.9,1.1h9.7c0.8,0,1.5-0.4,1.9-1.1c0.4,0.6,1.1,1.1,1.9,1.1H94c1.3,0,2.4-1.1,2.4-2.5V0H0z
		 M95.4,69.6c0,0.8-0.6,1.5-1.4,1.5h-9.8c-0.8,0-1.4-0.7-1.4-1.5V46.9h2.5c1,0,1.9-0.9,1.9-2V1h8.1L95.4,69.6z M80.4,71.1h-9.7
		c-0.8,0-1.4-0.7-1.4-1.5V46.9h2.5c1,0,1.9-0.9,1.9-2V1h3.6v43.9c0,1.1,0.9,2,1.9,2h2.5v22.7C81.8,70.4,81.2,71.1,80.4,71.1z
		 M57,71.1c-0.8,0-1.4-0.7-1.4-1.5V46.9h2.5c1,0,1.9-0.9,1.9-2V1h3.7v43.9c0,1.1,0.9,2,1.9,2h2.5v22.7c0,0.8-0.6,1.5-1.4,1.5
		L57,71.1z M53.1,71.1h-9.8c-0.8,0-1.4-0.7-1.4-1.5V1H50v43.9c0,1.1,0.9,2,1.9,2h2.5v22.7C54.5,70.4,53.8,71.1,53.1,71.1z
		 M28.3,69.6V46.9h2.5c1,0,1.9-0.9,1.9-2V1h8.1v68.6c0,0.8-0.6,1.5-1.4,1.5h-9.8C28.9,71.1,28.3,70.4,28.3,69.6z M14.7,69.6V46.9
		h2.5c1,0,1.9-0.9,1.9-2V1h3.7v43.6l0,0v0.3c0,1.1,0.9,2,1.9,2h2.5v22.7c0,0.8-0.6,1.5-1.4,1.5H16C15.3,71.1,14.7,70.4,14.7,69.6z
		 M12.1,71.1H2.4c-0.8,0-1.4-0.7-1.4-1.5V1h8.1v43.9c0,1.1,0.9,2,1.9,2h2.5v22.7C13.5,70.4,12.9,71.1,12.1,71.1z"/>
</g>
<g id="WhiteKeyZone1" display="none">

		<rect id="C" x="0.4" y="46.3" width="13.8" height="25.8"/>

		<rect id="D" x="14" y="46.3" width="13.8" height="25.8"/>

		<rect id="E" x="27.6" y="46.3" width="13.8" height="25.8"/>

		<rect id="F" x="41.3" y="46.3" width="13.8" height="25.8"/>

		<rect id="G" x="54.9" y="46.3" width="13.8" height="25.8"/>

		<rect id="A" x="68.6" y="46.3" width="13.8" height="25.8"/>

		<rect id="B" x="82.2" y="46.3" width="13.8" height="25.8"/>
</g>
<g id="BlackKeyZone1" display="none">

		<rect id="C#Db" x="9.7" width="8.6" height="46.3"/>

		<rect id="D#Eb" x="23.5" width="8.6" height="46.3"/>

		<rect id="F#Gb" x="50.6" width="8.6" height="46.3"/>

		<rect id="G#Ab" x="64.4" width="8.6" height="46.3"/>

		<rect id="A#Bb" x="77.8" width="8.6" height="46.3"/>
</g>
</svg>
