<?xml version="1.0" encoding="utf-8"?>
<!-- Generator: Adobe Illustrator 24.2.3, SVG Export Plug-In . SVG Version: 6.00 Build 0)  -->
<svg version="1.1" xmlns="http://www.w3.org/2000/svg" xmlns:xlink="http://www.w3.org/1999/xlink" x="0px" y="0px"
	 viewBox="0 0 96.4 72.1" style="enable-background:new 0 0 96.4 72.1;" xml:space="preserve">
<g id="Background">
	<path id="background" d="M0,0v69.6c0,1.4,1.1,2.5,2.4,2.5h9.7c0.8,0,1.5-0.4,2-1.1c0.4,0.7,1.1,1.1,2,1.1h9.8 c0.8,0,1.5-0.4,1.9-1.1c0.4,0.6,1.1,1.1,1.9,1.1h9.8c0.8,0,1.5-0.4,1.9-1.1c0.4,0.6,1.1,1.1,1.9,1.1h9.8c0.8,0,1.5-0.4,2-1.1 c0.4,0.7,1.1,1.1,2,1.1h9.7c0.8,0,1.5-0.4,1.9-1.1c0.4,0.6,1.1,1.1,1.9,1.1h9.7c0.8,0,1.5-0.4,1.9-1.1c0.4,0.6,1.1,1.1,1.9,1.1H94 c1.3,0,2.4-1.1,2.4-2.5V0H0z"/>
</g>
<g id="WhiteKeys">
	<path id="B" fill="#FFFFFF" d="M95.4,69.6c0,0.8-0.6,1.5-1.4,1.5h-9.8c-0.8,0-1.4-0.7-1.4-1.5V46.9h2.5c1,0,1.9-0.9,1.9-2V1h8.1 L95.4,69.6z"/>
	<path id="A" fill="#FFFFFF" d="M80.4,71.1h-9.7c-0.8,0-1.4-0.7-1.4-1.5V46.9h2.5c1,0,1.9-0.9,1.9-2V1h3.6v43.9c0,1.1,0.9,2,1.9,2h2.5 v22.7C81.8,70.4,81.2,71.1,80.4,71.1z"/>
	<path id="G" fill="#FFFFFF" d="M57,71.1c-0.8,0-1.4-0.7-1.4-1.5V46.9h2.5c1,0,1.9-0.9,1.9-2V1h3.7v43.9c0,1.1,0.9,2,1.9,2h2.5v22.7 c0,0.8-0.6,1.5-1.4,1.5L57,71.1z"/>
	<path id="F" fill="#FFFFFF" d="M53.1,71.1h-9.8c-0.8,0-1.4-0.7-1.4-1.5V1H50v43.9c0,1.1,0.9,2,1.9,2h2.5v22.7 C54.5,70.4,53.8,71.1,53.1,71.1z"/>
	<path id="E" fill="#FFFFFF" d="M28.3,69.6V46.9h2.5c1,0,1.9-0.9,1.9-2V1h8.1v68.6c0,0.8-0.6,1.5-1.4,1.5h-9.8 C28.9,71.1,28.3,70.4,28.3,69.6z"/>
	<path id="D" fill="#FFFFFF" d="M14.7,69.6V46.9h2.5c1,0,1.9-0.9,1.9-2V1h3.7v43.6l0,0v0.3c0,1.1,0.9,2,1.9,2h2.5v22.7 c0,0.8-0.6,1.5-1.4,1.5H16C15.3,71.1,14.7,70.4,14.7,69.6z"/>
	<path id="C" fill="#FFFFFF" d="M12.1,71.1H2.4c-0.8,0-1.4-0.7-1.4-1.5V1h8.1v43.9c0,1.1,0.9,2,1.9,2h2.5v22.7 C13.5,70.4,12.9,71.1,12.1,71.1z"/>
</g>
<g id="BlackKeys">
	<path id="A#Bb1" d="M87.3,0v44.6c0,1.1-0.9,2-1.9,2h-6.2c-1,0-1.9-0.9-1.9-2V0H87.3z"/>
	<path id="G#Ab1" d="M73.7,0v44.6c0,1.1-0.9,2-1.9,2h-6.2c-1,0-1.9-0.9-1.9-2V0H73.7z"/>
	<path id="F#Gb1" d="M60,0v44.6c0,1.1-0.9,2-1.9,2h-6.2c-1,0-1.9-0.9-1.9-2V0H60z"/>
	<path id="D#Eb1" d="M32.7,0v44.6c0,1.1-0.9,2-1.9,2h-6.2c-1,0-1.9-0.9-1.9-2V0H32.7z"/>
	<path id="C#Db1" d="M19.1,0v44.6c0,1.1-0.9,2-1.9,2H11c-1,0-1.9-0.9-1.9-2V0H19.1z"/>
</g>
</svg>
