<?xml version="1.0" encoding="utf-8"?>
<!-- Generator: Adobe Illustrator 16.0.0, SVG Export Plug-In . SVG Version: 6.00 Build 0)  -->
<!DOCTYPE svg PUBLIC "-//W3C//DTD SVG 1.1//EN" "http://www.w3.org/Graphics/SVG/1.1/DTD/svg11.dtd">
<svg version="1.1" id="Keyboard" xmlns="http://www.w3.org/2000/svg" xmlns:xlink="http://www.w3.org/1999/xlink" x="0px" y="0px"
	 width="792px" height="54.1px" viewBox="0 0 792 54.1" enable-background="new 0 0 792 54.1" xml:space="preserve">

<g id="Oct00">
	<g id="WhiteKeys">
		<path id="B-011" fill="#FFFFFF" d="M72,52.9c0,0.6-0.5,1.1-1.2,1.1h-8c-0.7,0-1.1-0.5-1.1-1.1V35.3h2.1c0.8,0,1.5-0.7,1.5-1.5V0H72V52.9z"/>
		<path id="A-009" fill="#FFFFFF" d="M60.6,54h-8.1c-0.7,0-1.1-0.5-1.1-1.1V35.3h2.1c0.9,0,1.5-0.7,1.5-1.5V0h3v33.8c0,0.8,0.8,1.5,1.6,1.5h2.1v17.5C61.7,53.5,61.3,54,60.6,54z"/>
		<path id="G-007" fill="#FFFFFF" d="M42.2,54c-0.7,0-1.1-0.5-1.1-1.1V35.3h2.1c0.9,0,1.5-0.7,1.5-1.5V0h3.1v33.8c0,0.8,0.8,1.5,1.5,1.5h2.1v17.5c0,0.6-0.5,1.2-1.2,1.2H42.2z"/>
		<path id="F-005" fill="#FFFFFF" d="M40,54h-8.1c-0.7,0-1.1-0.5-1.1-1.1V0h6.6v33.8c0,0.8,0.8,1.5,1.6,1.5h2.1v17.6C41,53.5,40.5,54,40,54z"/>
		<path id="E-004" fill="#FFFFFF" d="M20.6,52.9V35.3h2.1c0.9,0,1.5-0.7,1.5-1.5V0h6.7v52.9c0,0.6-0.6,1.1-1.2,1.1h-8C21.1,54,20.6,53.5,20.6,52.9z"/>
		<path id="D-002" fill="#FFFFFF" d="M10.3,52.9V35.3h2.1c0.9,0,1.5-0.7,1.5-1.5V0h3v33.7l0,0v0.1c0,0.8,0.8,1.5,1.5,1.5h2.1v17.5c0,0.6-0.3,1.2-1.1,1.2h-8.1C10.6,54,10.3,53.5,10.3,52.9z"/>
		<path id="C-000" fill="#FFFFFF" d="M9.2,54H1.1C0.4,54,0,53.5,0,52.9V0h6.6v33.8c0,0.8,0.8,1.5,1.5,1.5h2.1v17.6C10.4,53.5,9.8,54,9.2,54z"/>
	</g>
	<g id="Blackkeys">
		<path id="A_x23_Bb-010" d="M65.2,0v33.8c0,0.8-0.7,1.5-1.4,1.5h-4.4c-0.8,0-1.4-0.7-1.4-1.5V0H65.2z"/>
		<path id="G_x23_Ab-008" d="M55,0v33.8c0,0.8-0.7,1.5-1.4,1.5h-4.4c-0.8,0-1.4-0.7-1.4-1.5V0H55z"/>
		<path id="F_x23_Gb-006" d="M44.7,0v33.8c0,0.8-0.7,1.5-1.4,1.5h-4.4c-0.8,0-1.4-0.7-1.4-1.5V0H44.7z"/>
		<path id="D_x23_Eb-003" d="M24.1,0v33.8c0,0.8-0.7,1.5-1.4,1.5h-4.4c-0.8,0-1.4-0.7-1.4-1.5V0H24.1z"/>
		<path id="C_x23_Db-001" d="M13.9,0v33.8c0,0.8-0.7,1.5-1.3,1.5H8c-0.8,0-1.3-0.7-1.3-1.5V0H13.9z"/>
	</g>
</g>

<g id="Oct01">
	<g id="WhiteKeys_1_">
		<path id="B-011_1_" fill="#FFFFFF" d="M144,52.9c0,0.6-0.5,1.1-1.2,1.1h-8c-0.7,0-1.1-0.5-1.1-1.1V35.3h2.1c0.8,0,1.5-0.7,1.5-1.5V0h6.7V52.9z"/>
		<path id="A-009_1_" fill="#FFFFFF" d="M132.6,54h-8.1c-0.7,0-1.1-0.5-1.1-1.1V35.3h2.1c0.9,0,1.5-0.7,1.5-1.5V0h3v33.8c0,0.8,0.8,1.5,1.6,1.5h2.1v17.5C133.7,53.5,133.3,54,132.6,54z"/>
		<path id="G-007_1_" fill="#FFFFFF" d="M114.2,54c-0.7,0-1.1-0.5-1.1-1.1V35.3h2.1c0.9,0,1.5-0.7,1.5-1.5V0h3.1v33.8c0,0.8,0.8,1.5,1.5,1.5h2.1v17.5c0,0.6-0.5,1.2-1.2,1.2H114.2z"/>
		<path id="F-005_1_" fill="#FFFFFF" d="M112,54h-8.1c-0.7,0-1.1-0.5-1.1-1.1V0h6.6v33.8c0,0.8,0.8,1.5,1.6,1.5h2.1v17.6C113,53.5,112.5,54,112,54z"/>
		<path id="E-004_1_" fill="#FFFFFF" d="M92.6,52.9V35.3h2.1c0.9,0,1.5-0.7,1.5-1.5V0h6.7v52.9c0,0.6-0.6,1.1-1.2,1.1h-8C93.1,54,92.6,53.5,92.6,52.9z"/>
		<path id="D-002_1_" fill="#FFFFFF" d="M82.3,52.9V35.3h2.1c0.9,0,1.5-0.7,1.5-1.5V0h3v33.7l0,0v0.1c0,0.8,0.8,1.5,1.5,1.5h2.1v17.5c0,0.6-0.3,1.2-1.1,1.2h-8.1C82.6,54,82.3,53.5,82.3,52.9z"/>
		<path id="C-000_1_" fill="#FFFFFF" d="M81.2,54h-8.1c-0.7,0-1.1-0.5-1.1-1.1V0h6.6v33.8c0,0.8,0.8,1.5,1.5,1.5h2.1v17.6C82.4,53.5,81.8,54,81.2,54z"/>
	</g>
	<g id="Blackkeys_1_">
		<path id="A_x23_Bb-010_1_" d="M137.2,0v33.8c0,0.8-0.7,1.5-1.4,1.5h-4.4c-0.8,0-1.4-0.7-1.4-1.5V0H137.2z"/>
		<path id="G_x23_Ab-008_1_" d="M127,0v33.8c0,0.8-0.7,1.5-1.4,1.5h-4.4c-0.8,0-1.4-0.7-1.4-1.5V0H127z"/>
		<path id="F_x23_Gb-006_1_" d="M116.7,0v33.8c0,0.8-0.7,1.5-1.4,1.5h-4.4c-0.8,0-1.4-0.7-1.4-1.5V0H116.7z"/>
		<path id="D_x23_Eb-003_1_" d="M96.1,0v33.8c0,0.8-0.7,1.5-1.4,1.5h-4.4c-0.8,0-1.4-0.7-1.4-1.5V0H96.1z"/>
		<path id="C_x23_Db-001_1_" d="M85.9,0v33.8c0,0.8-0.7,1.5-1.3,1.5H80c-0.8,0-1.3-0.7-1.3-1.5V0H85.9z"/>
	</g>
</g>

<g id="Oct02">
	<g id="WhiteKeys_2_">
		<path id="B-011_2_" fill="#FFFFFF" d="M216,52.9c0,0.6-0.5,1.1-1.2,1.1h-8c-0.7,0-1.1-0.5-1.1-1.1V35.3h2.1c0.8,0,1.5-0.7,1.5-1.5V0h6.7V52.9z"/>
		<path id="A-009_2_" fill="#FFFFFF" d="M204.6,54h-8.1c-0.7,0-1.1-0.5-1.1-1.1V35.3h2.1c0.9,0,1.5-0.7,1.5-1.5V0h3v33.8c0,0.8,0.8,1.5,1.6,1.5h2.1v17.5C205.7,53.5,205.3,54,204.6,54z"/>
		<path id="G-007_2_" fill="#FFFFFF" d="M186.2,54c-0.7,0-1.1-0.5-1.1-1.1V35.3h2.1c0.9,0,1.5-0.7,1.5-1.5V0h3.1v33.8c0,0.8,0.8,1.5,1.5,1.5h2.1v17.5c0,0.6-0.5,1.2-1.2,1.2H186.2z"/>
		<path id="F-005_2_" fill="#FFFFFF" d="M184,54h-8.1c-0.7,0-1.1-0.5-1.1-1.1V0h6.6v33.8c0,0.8,0.8,1.5,1.6,1.5h2.1v17.6C185,53.5,184.5,54,184,54z"/>
		<path id="E-004_2_" fill="#FFFFFF" d="M164.6,52.9V35.3h2.1c0.9,0,1.5-0.7,1.5-1.5V0h6.7v52.9c0,0.6-0.6,1.1-1.2,1.1h-8C165.1,54,164.6,53.5,164.6,52.9z"/>
		<path id="D-002_2_" fill="#FFFFFF" d="M154.3,52.9V35.3h2.1c0.9,0,1.5-0.7,1.5-1.5V0h3v33.7l0,0v0.1c0,0.8,0.8,1.5,1.5,1.5h2.1v17.5c0,0.6-0.3,1.2-1.1,1.2h-8.1C154.6,54,154.3,53.5,154.3,52.9z"/>
		<path id="C-000_2_" fill="#FFFFFF" d="M153.2,54h-8.1c-0.7,0-1.1-0.5-1.1-1.1V0h6.6v33.8c0,0.8,0.8,1.5,1.5,1.5h2.1v17.6C154.4,53.5,153.8,54,153.2,54z"/>
	</g>
	<g id="Blackkeys_2_">
		<path id="A_x23_Bb-010_2_" d="M209.2,0v33.8c0,0.8-0.7,1.5-1.4,1.5h-4.4c-0.8,0-1.4-0.7-1.4-1.5V0H209.2z"/>
		<path id="G_x23_Ab-008_2_" d="M199,0v33.8c0,0.8-0.7,1.5-1.4,1.5h-4.4c-0.8,0-1.4-0.7-1.4-1.5V0H199z"/>
		<path id="F_x23_Gb-006_2_" d="M188.7,0v33.8c0,0.8-0.7,1.5-1.4,1.5h-4.4c-0.8,0-1.4-0.7-1.4-1.5V0H188.7z"/>
		<path id="D_x23_Eb-003_2_" d="M168.1,0v33.8c0,0.8-0.7,1.5-1.4,1.5h-4.4c-0.8,0-1.4-0.7-1.4-1.5V0H168.1z"/>
		<path id="C_x23_Db-001_2_" d="M157.9,0v33.8c0,0.8-0.7,1.5-1.3,1.5H152c-0.8,0-1.3-0.7-1.3-1.5V0H157.9z"/>
	</g>
</g>

<g id="Oct03">
	<g id="WhiteKeys_3_">
		<path id="B-011_3_" fill="#FFFFFF" d="M288,52.9c0,0.6-0.5,1.1-1.2,1.1h-8c-0.7,0-1.1-0.5-1.1-1.1V35.3h2.1c0.8,0,1.5-0.7,1.5-1.5
			V0h6.7V52.9z"/>
		<path id="A-009_3_" fill="#FFFFFF" d="M276.6,54h-8.1c-0.7,0-1.1-0.5-1.1-1.1V35.3h2.1c0.9,0,1.5-0.7,1.5-1.5V0h3v33.8
			c0,0.8,0.8,1.5,1.6,1.5h2.1v17.5C277.7,53.5,277.3,54,276.6,54z"/>
		<path id="G-007_3_" fill="#FFFFFF" d="M258.2,54c-0.7,0-1.1-0.5-1.1-1.1V35.3h2.1c0.9,0,1.5-0.7,1.5-1.5V0h3.1v33.8
			c0,0.8,0.8,1.5,1.5,1.5h2.1v17.5c0,0.6-0.5,1.2-1.2,1.2H258.2z"/>
		<path id="F-005_3_" fill="#FFFFFF" d="M256,54h-8.1c-0.7,0-1.1-0.5-1.1-1.1V0h6.6v33.8c0,0.8,0.8,1.5,1.6,1.5h2.1v17.6
			C257,53.5,256.5,54,256,54z"/>
		<path id="E-004_3_" fill="#FFFFFF" d="M236.6,52.9V35.3h2.1c0.9,0,1.5-0.7,1.5-1.5V0h6.7v52.9c0,0.6-0.6,1.1-1.2,1.1h-8
			C237.1,54,236.6,53.5,236.6,52.9z"/>
		<path id="D-002_3_" fill="#FFFFFF" d="M226.3,52.9V35.3h2.1c0.9,0,1.5-0.7,1.5-1.5V0h3v33.7l0,0v0.1c0,0.8,0.8,1.5,1.5,1.5h2.1
			v17.5c0,0.6-0.3,1.2-1.1,1.2h-8.1C226.6,54,226.3,53.5,226.3,52.9z"/>
		<path id="C-000_3_" fill="#FFFFFF" d="M225.2,54h-8.1c-0.7,0-1.1-0.5-1.1-1.1V0h6.6v33.8c0,0.8,0.8,1.5,1.5,1.5h2.1v17.6
			C226.4,53.5,225.8,54,225.2,54z"/>
	</g>
	<g id="Blackkeys_3_">
		<path id="A_x23_Bb-010_3_" d="M281.2,0v33.8c0,0.8-0.7,1.5-1.4,1.5h-4.4c-0.8,0-1.4-0.7-1.4-1.5V0H281.2z"/>
		<path id="G_x23_Ab-008_3_" d="M271,0v33.8c0,0.8-0.7,1.5-1.4,1.5h-4.4c-0.8,0-1.4-0.7-1.4-1.5V0H271z"/>
		<path id="F_x23_Gb-006_3_" d="M260.7,0v33.8c0,0.8-0.7,1.5-1.4,1.5h-4.4c-0.8,0-1.4-0.7-1.4-1.5V0H260.7z"/>
		<path id="D_x23_Eb-003_3_" d="M240.1,0v33.8c0,0.8-0.7,1.5-1.4,1.5h-4.4c-0.8,0-1.4-0.7-1.4-1.5V0H240.1z"/>
		<path id="C_x23_Db-001_3_" d="M229.9,0v33.8c0,0.8-0.7,1.5-1.3,1.5H224c-0.8,0-1.3-0.7-1.3-1.5V0H229.9z"/>
	</g>
</g>

<g id="Oct04">
	<g id="WhiteKeys_4_">
		<path id="B-011_4_" fill="#FFFFFF" d="M360,52.9c0,0.6-0.5,1.1-1.2,1.1h-8c-0.7,0-1.1-0.5-1.1-1.1V35.3h2.1c0.8,0,1.5-0.7,1.5-1.5V0h6.7V52.9z"/>
		<path id="A-009_4_" fill="#FFFFFF" d="M348.6,54h-8.1c-0.7,0-1.1-0.5-1.1-1.1V35.3h2.1c0.9,0,1.5-0.7,1.5-1.5V0h3v33.8c0,0.8,0.8,1.5,1.6,1.5h2.1v17.5C349.7,53.5,349.3,54,348.6,54z"/>
		<path id="G-007_4_" fill="#FFFFFF" d="M330.2,54c-0.7,0-1.1-0.5-1.1-1.1V35.3h2.1c0.9,0,1.5-0.7,1.5-1.5V0h3.1v33.8c0,0.8,0.8,1.5,1.5,1.5h2.1v17.5c0,0.6-0.5,1.2-1.2,1.2H330.2z"/>
		<path id="F-005_4_" fill="#FFFFFF" d="M328,54h-8.1c-0.7,0-1.1-0.5-1.1-1.1V0h6.6v33.8c0,0.8,0.8,1.5,1.6,1.5h2.1v17.6C329,53.5,328.5,54,328,54z"/>
		<path id="E-004_4_" fill="#FFFFFF" d="M308.6,52.9V35.3h2.1c0.9,0,1.5-0.7,1.5-1.5V0h6.7v52.9c0,0.6-0.6,1.1-1.2,1.1h-8C309.1,54,308.6,53.5,308.6,52.9z"/>
		<path id="D-002_4_" fill="#FFFFFF" d="M298.3,52.9V35.3h2.1c0.9,0,1.5-0.7,1.5-1.5V0h3v33.7l0,0v0.1c0,0.8,0.8,1.5,1.5,1.5h2.1v17.5c0,0.6-0.3,1.2-1.1,1.2h-8.1C298.6,54,298.3,53.5,298.3,52.9z"/>
		<path id="C-000_4_" fill="#FFFFFF" d="M297.2,54h-8.1c-0.7,0-1.1-0.5-1.1-1.1V0h6.6v33.8c0,0.8,0.8,1.5,1.5,1.5h2.1v17.6C298.4,53.5,297.8,54,297.2,54z"/>
	</g>
	<g id="Blackkeys_4_">
		<path id="A_x23_Bb-010_4_" d="M353.2,0v33.8c0,0.8-0.7,1.5-1.4,1.5h-4.4c-0.8,0-1.4-0.7-1.4-1.5V0H353.2z"/>
		<path id="G_x23_Ab-008_4_" d="M343,0v33.8c0,0.8-0.7,1.5-1.4,1.5h-4.4c-0.8,0-1.4-0.7-1.4-1.5V0H343z"/>
		<path id="F_x23_Gb-006_4_" d="M332.7,0v33.8c0,0.8-0.7,1.5-1.4,1.5h-4.4c-0.8,0-1.4-0.7-1.4-1.5V0H332.7z"/>
		<path id="D_x23_Eb-003_4_" d="M312.1,0v33.8c0,0.8-0.7,1.5-1.4,1.5h-4.4c-0.8,0-1.4-0.7-1.4-1.5V0H312.1z"/>
		<path id="C_x23_Db-001_4_" d="M301.9,0v33.8c0,0.8-0.7,1.5-1.3,1.5H296c-0.8,0-1.3-0.7-1.3-1.5V0H301.9z"/>
	</g>
</g>


<g id="Oct05">
	<g id="WhiteKeys_5_">
		<path id="B-011_5_" fill="#FFFFFF" d="M432,52.9c0,0.6-0.5,1.1-1.2,1.1h-8c-0.7,0-1.1-0.5-1.1-1.1V35.3h2.1c0.8,0,1.5-0.7,1.5-1.5V0h6.7V52.9z"/>
		<path id="A-009_5_" fill="#FFFFFF" d="M420.6,54h-8.1c-0.7,0-1.1-0.5-1.1-1.1V35.3h2.1c0.9,0,1.5-0.7,1.5-1.5V0h3v33.8c0,0.8,0.8,1.5,1.6,1.5h2.1v17.5C421.7,53.5,421.3,54,420.6,54z"/>
		<path id="G-007_5_" fill="#FFFFFF" d="M402.2,54c-0.7,0-1.1-0.5-1.1-1.1V35.3h2.1c0.9,0,1.5-0.7,1.5-1.5V0h3.1v33.8c0,0.8,0.8,1.5,1.5,1.5h2.1v17.5c0,0.6-0.5,1.2-1.2,1.2H402.2z"/>
		<path id="F-005_5_" fill="#FFFFFF" d="M400,54h-8.1c-0.7,0-1.1-0.5-1.1-1.1V0h6.6v33.8c0,0.8,0.8,1.5,1.6,1.5h2.1v17.6C401,53.5,400.5,54,400,54z"/>
		<path id="E-004_5_" fill="#FFFFFF" d="M380.6,52.9V35.3h2.1c0.9,0,1.5-0.7,1.5-1.5V0h6.7v52.9c0,0.6-0.6,1.1-1.2,1.1h-8C381.1,54,380.6,53.5,380.6,52.9z"/>
		<path id="D-002_5_" fill="#FFFFFF" d="M370.3,52.9V35.3h2.1c0.9,0,1.5-0.7,1.5-1.5V0h3v33.7l0,0v0.1c0,0.8,0.8,1.5,1.5,1.5h2.1v17.5c0,0.6-0.3,1.2-1.1,1.2h-8.1C370.6,54,370.3,53.5,370.3,52.9z"/>
		<path id="C-000_5_" fill="#FFFFFF" d="M369.2,54h-8.1c-0.7,0-1.1-0.5-1.1-1.1V0h6.6v33.8c0,0.8,0.8,1.5,1.5,1.5h2.1v17.6C370.4,53.5,369.8,54,369.2,54z"/>
	</g>
	<g id="Blackkeys_5_">
		<path id="A_x23_Bb-010_5_" d="M425.2,0v33.8c0,0.8-0.7,1.5-1.4,1.5h-4.4c-0.8,0-1.4-0.7-1.4-1.5V0H425.2z"/>
		<path id="G_x23_Ab-008_5_" d="M415,0v33.8c0,0.8-0.7,1.5-1.4,1.5h-4.4c-0.8,0-1.4-0.7-1.4-1.5V0H415z"/>
		<path id="F_x23_Gb-006_5_" d="M404.7,0v33.8c0,0.8-0.7,1.5-1.4,1.5h-4.4c-0.8,0-1.4-0.7-1.4-1.5V0H404.7z"/>
		<path id="D_x23_Eb-003_5_" d="M384.1,0v33.8c0,0.8-0.7,1.5-1.4,1.5h-4.4c-0.8,0-1.4-0.7-1.4-1.5V0H384.1z"/>
		<path id="C_x23_Db-001_5_" d="M373.9,0v33.8c0,0.8-0.7,1.5-1.3,1.5H368c-0.8,0-1.3-0.7-1.3-1.5V0H373.9z"/>
	</g>
</g>


<g id="Oct06">
	<g id="WhiteKeys_6_">
		<path id="B-011_6_" fill="#FFFFFF" d="M504,52.9c0,0.6-0.5,1.1-1.2,1.1h-8c-0.7,0-1.1-0.5-1.1-1.1V35.3h2.1c0.8,0,1.5-0.7,1.5-1.5
			V0h6.7V52.9z"/>
		<path id="A-009_6_" fill="#FFFFFF" d="M492.6,54h-8.1c-0.7,0-1.1-0.5-1.1-1.1V35.3h2.1c0.9,0,1.5-0.7,1.5-1.5V0h3v33.8
			c0,0.8,0.8,1.5,1.6,1.5h2.1v17.5C493.7,53.5,493.3,54,492.6,54z"/>
		<path id="G-007_6_" fill="#FFFFFF" d="M474.2,54c-0.7,0-1.1-0.5-1.1-1.1V35.3h2.1c0.9,0,1.5-0.7,1.5-1.5V0h3.1v33.8
			c0,0.8,0.8,1.5,1.5,1.5h2.1v17.5c0,0.6-0.5,1.2-1.2,1.2H474.2z"/>
		<path id="F-005_6_" fill="#FFFFFF" d="M472,54h-8.1c-0.7,0-1.1-0.5-1.1-1.1V0h6.6v33.8c0,0.8,0.8,1.5,1.6,1.5h2.1v17.6
			C473,53.5,472.5,54,472,54z"/>
		<path id="E-004_6_" fill="#FFFFFF" d="M452.6,52.9V35.3h2.1c0.9,0,1.5-0.7,1.5-1.5V0h6.7v52.9c0,0.6-0.6,1.1-1.2,1.1h-8
			C453.1,54,452.6,53.5,452.6,52.9z"/>
		<path id="D-002_6_" fill="#FFFFFF" d="M442.3,52.9V35.3h2.1c0.9,0,1.5-0.7,1.5-1.5V0h3v33.7l0,0v0.1c0,0.8,0.8,1.5,1.5,1.5h2.1
			v17.5c0,0.6-0.3,1.2-1.1,1.2h-8.1C442.6,54,442.3,53.5,442.3,52.9z"/>
		<path id="C-000_6_" fill="#FFFFFF" d="M441.2,54h-8.1c-0.7,0-1.1-0.5-1.1-1.1V0h6.6v33.8c0,0.8,0.8,1.5,1.5,1.5h2.1v17.6
			C442.4,53.5,441.8,54,441.2,54z"/>
	</g>
	<g id="Blackkeys_6_">
		<path id="A_x23_Bb-010_6_" d="M497.2,0v33.8c0,0.8-0.7,1.5-1.4,1.5h-4.4c-0.8,0-1.4-0.7-1.4-1.5V0H497.2z"/>
		<path id="G_x23_Ab-008_6_" d="M487,0v33.8c0,0.8-0.7,1.5-1.4,1.5h-4.4c-0.8,0-1.4-0.7-1.4-1.5V0H487z"/>
		<path id="F_x23_Gb-006_6_" d="M476.7,0v33.8c0,0.8-0.7,1.5-1.4,1.5h-4.4c-0.8,0-1.4-0.7-1.4-1.5V0H476.7z"/>
		<path id="D_x23_Eb-003_6_" d="M456.1,0v33.8c0,0.8-0.7,1.5-1.4,1.5h-4.4c-0.8,0-1.4-0.7-1.4-1.5V0H456.1z"/>
		<path id="C_x23_Db-001_6_" d="M445.9,0v33.8c0,0.8-0.7,1.5-1.3,1.5H440c-0.8,0-1.3-0.7-1.3-1.5V0H445.9z"/>
	</g>
</g>
<g id="Oct07">
	<g id="WhiteKeys_7_">
		<path id="B-011_7_" fill="#FFFFFF" d="M576,52.9c0,0.6-0.5,1.1-1.2,1.1h-8c-0.7,0-1.1-0.5-1.1-1.1V35.3h2.1c0.8,0,1.5-0.7,1.5-1.5
			V0h6.7V52.9z"/>
		<path id="A-009_7_" fill="#FFFFFF" d="M564.6,54h-8.1c-0.7,0-1.1-0.5-1.1-1.1V35.3h2.1c0.9,0,1.5-0.7,1.5-1.5V0h3v33.8
			c0,0.8,0.8,1.5,1.6,1.5h2.1v17.5C565.7,53.5,565.3,54,564.6,54z"/>
		<path id="G-007_7_" fill="#FFFFFF" d="M546.2,54c-0.7,0-1.1-0.5-1.1-1.1V35.3h2.1c0.9,0,1.5-0.7,1.5-1.5V0h3.1v33.8
			c0,0.8,0.8,1.5,1.5,1.5h2.1v17.5c0,0.6-0.5,1.2-1.2,1.2H546.2z"/>
		<path id="F-005_7_" fill="#FFFFFF" d="M544,54h-8.1c-0.7,0-1.1-0.5-1.1-1.1V0h6.6v33.8c0,0.8,0.8,1.5,1.6,1.5h2.1v17.6
			C545,53.5,544.5,54,544,54z"/>
		<path id="E-004_7_" fill="#FFFFFF" d="M524.6,52.9V35.3h2.1c0.9,0,1.5-0.7,1.5-1.5V0h6.7v52.9c0,0.6-0.6,1.1-1.2,1.1h-8
			C525.1,54,524.6,53.5,524.6,52.9z"/>
		<path id="D-002_7_" fill="#FFFFFF" d="M514.3,52.9V35.3h2.1c0.9,0,1.5-0.7,1.5-1.5V0h3v33.7l0,0v0.1c0,0.8,0.8,1.5,1.5,1.5h2.1
			v17.5c0,0.6-0.3,1.2-1.1,1.2h-8.1C514.6,54,514.3,53.5,514.3,52.9z"/>
		<path id="C-000_7_" fill="#FFFFFF" d="M513.2,54h-8.1c-0.7,0-1.1-0.5-1.1-1.1V0h6.6v33.8c0,0.8,0.8,1.5,1.5,1.5h2.1v17.6
			C514.4,53.5,513.8,54,513.2,54z"/>
	</g>
	<g id="Blackkeys_7_">
		<path id="A_x23_Bb-010_7_" d="M569.2,0v33.8c0,0.8-0.7,1.5-1.4,1.5h-4.4c-0.8,0-1.4-0.7-1.4-1.5V0H569.2z"/>
		<path id="G_x23_Ab-008_7_" d="M559,0v33.8c0,0.8-0.7,1.5-1.4,1.5h-4.4c-0.8,0-1.4-0.7-1.4-1.5V0H559z"/>
		<path id="F_x23_Gb-006_7_" d="M548.7,0v33.8c0,0.8-0.7,1.5-1.4,1.5h-4.4c-0.8,0-1.4-0.7-1.4-1.5V0H548.7z"/>
		<path id="D_x23_Eb-003_7_" d="M528.1,0v33.8c0,0.8-0.7,1.5-1.4,1.5h-4.4c-0.8,0-1.4-0.7-1.4-1.5V0H528.1z"/>
		<path id="C_x23_Db-001_7_" d="M517.9,0v33.8c0,0.8-0.7,1.5-1.3,1.5H512c-0.8,0-1.3-0.7-1.3-1.5V0H517.9z"/>
	</g>
</g>
<g id="Oct08">
	<g id="WhiteKeys_8_">
		<path id="B-011_8_" fill="#FFFFFF" d="M648,52.9c0,0.6-0.5,1.1-1.2,1.1h-8c-0.7,0-1.1-0.5-1.1-1.1V35.3h2.1c0.8,0,1.5-0.7,1.5-1.5
			V0h6.7V52.9z"/>
		<path id="A-009_8_" fill="#FFFFFF" d="M636.6,54h-8.1c-0.7,0-1.1-0.5-1.1-1.1V35.3h2.1c0.9,0,1.5-0.7,1.5-1.5V0h3v33.8
			c0,0.8,0.8,1.5,1.6,1.5h2.1v17.5C637.7,53.5,637.3,54,636.6,54z"/>
		<path id="G-007_8_" fill="#FFFFFF" d="M618.2,54c-0.7,0-1.1-0.5-1.1-1.1V35.3h2.1c0.9,0,1.5-0.7,1.5-1.5V0h3.1v33.8
			c0,0.8,0.8,1.5,1.5,1.5h2.1v17.5c0,0.6-0.5,1.2-1.2,1.2H618.2z"/>
		<path id="F-005_8_" fill="#FFFFFF" d="M616,54h-8.1c-0.7,0-1.1-0.5-1.1-1.1V0h6.6v33.8c0,0.8,0.8,1.5,1.6,1.5h2.1v17.6
			C617,53.5,616.5,54,616,54z"/>
		<path id="E-004_8_" fill="#FFFFFF" d="M596.6,52.9V35.3h2.1c0.9,0,1.5-0.7,1.5-1.5V0h6.7v52.9c0,0.6-0.6,1.1-1.2,1.1h-8
			C597.1,54,596.6,53.5,596.6,52.9z"/>
		<path id="D-002_8_" fill="#FFFFFF" d="M586.3,52.9V35.3h2.1c0.9,0,1.5-0.7,1.5-1.5V0h3v33.7l0,0v0.1c0,0.8,0.8,1.5,1.5,1.5h2.1
			v17.5c0,0.6-0.3,1.2-1.1,1.2h-8.1C586.6,54,586.3,53.5,586.3,52.9z"/>
		<path id="C-000_8_" fill="#FFFFFF" d="M585.2,54h-8.1c-0.7,0-1.1-0.5-1.1-1.1V0h6.6v33.8c0,0.8,0.8,1.5,1.5,1.5h2.1v17.6
			C586.4,53.5,585.8,54,585.2,54z"/>
	</g>
	<g id="Blackkeys_8_">
		<path id="A_x23_Bb-010_8_" d="M641.2,0v33.8c0,0.8-0.7,1.5-1.4,1.5h-4.4c-0.8,0-1.4-0.7-1.4-1.5V0H641.2z"/>
		<path id="G_x23_Ab-008_8_" d="M631,0v33.8c0,0.8-0.7,1.5-1.4,1.5h-4.4c-0.8,0-1.4-0.7-1.4-1.5V0H631z"/>
		<path id="F_x23_Gb-006_8_" d="M620.7,0v33.8c0,0.8-0.7,1.5-1.4,1.5h-4.4c-0.8,0-1.4-0.7-1.4-1.5V0H620.7z"/>
		<path id="D_x23_Eb-003_8_" d="M600.1,0v33.8c0,0.8-0.7,1.5-1.4,1.5h-4.4c-0.8,0-1.4-0.7-1.4-1.5V0H600.1z"/>
		<path id="C_x23_Db-001_8_" d="M589.9,0v33.8c0,0.8-0.7,1.5-1.3,1.5H584c-0.8,0-1.3-0.7-1.3-1.5V0H589.9z"/>
	</g>
</g>
<g id="Oct09">
	<g id="WhiteKeys_9_">
		<path id="B-011_9_" fill="#FFFFFF" d="M720,52.9c0,0.6-0.5,1.1-1.2,1.1h-8c-0.7,0-1.1-0.5-1.1-1.1V35.3h2.1c0.8,0,1.5-0.7,1.5-1.5
			V0h6.7V52.9z"/>
		<path id="A-009_9_" fill="#FFFFFF" d="M708.6,54h-8.1c-0.7,0-1.1-0.5-1.1-1.1V35.3h2.1c0.9,0,1.5-0.7,1.5-1.5V0h3v33.8
			c0,0.8,0.8,1.5,1.6,1.5h2.1v17.5C709.7,53.5,709.3,54,708.6,54z"/>
		<path id="G-007_9_" fill="#FFFFFF" d="M690.2,54c-0.7,0-1.1-0.5-1.1-1.1V35.3h2.1c0.9,0,1.5-0.7,1.5-1.5V0h3.1v33.8
			c0,0.8,0.8,1.5,1.5,1.5h2.1v17.5c0,0.6-0.5,1.2-1.2,1.2H690.2z"/>
		<path id="F-005_9_" fill="#FFFFFF" d="M688,54h-8.1c-0.7,0-1.1-0.5-1.1-1.1V0h6.6v33.8c0,0.8,0.8,1.5,1.6,1.5h2.1v17.6
			C689,53.5,688.5,54,688,54z"/>
		<path id="E-004_9_" fill="#FFFFFF" d="M668.6,52.9V35.3h2.1c0.9,0,1.5-0.7,1.5-1.5V0h6.7v52.9c0,0.6-0.6,1.1-1.2,1.1h-8
			C669.1,54,668.6,53.5,668.6,52.9z"/>
		<path id="D-002_9_" fill="#FFFFFF" d="M658.3,52.9V35.3h2.1c0.9,0,1.5-0.7,1.5-1.5V0h3v33.7l0,0v0.1c0,0.8,0.8,1.5,1.5,1.5h2.1
			v17.5c0,0.6-0.3,1.2-1.1,1.2h-8.1C658.6,54,658.3,53.5,658.3,52.9z"/>
		<path id="C-000_9_" fill="#FFFFFF" d="M657.2,54h-8.1c-0.7,0-1.1-0.5-1.1-1.1V0h6.6v33.8c0,0.8,0.8,1.5,1.5,1.5h2.1v17.6
			C658.4,53.5,657.8,54,657.2,54z"/>
	</g>
	<g id="Blackkeys_9_">
		<path id="A_x23_Bb-010_9_" d="M713.2,0v33.8c0,0.8-0.7,1.5-1.4,1.5h-4.4c-0.8,0-1.4-0.7-1.4-1.5V0H713.2z"/>
		<path id="G_x23_Ab-008_9_" d="M703,0v33.8c0,0.8-0.7,1.5-1.4,1.5h-4.4c-0.8,0-1.4-0.7-1.4-1.5V0H703z"/>
		<path id="F_x23_Gb-006_9_" d="M692.7,0v33.8c0,0.8-0.7,1.5-1.4,1.5h-4.4c-0.8,0-1.4-0.7-1.4-1.5V0H692.7z"/>
		<path id="D_x23_Eb-003_9_" d="M672.1,0v33.8c0,0.8-0.7,1.5-1.4,1.5h-4.4c-0.8,0-1.4-0.7-1.4-1.5V0H672.1z"/>
		<path id="C_x23_Db-001_9_" d="M661.9,0v33.8c0,0.8-0.7,1.5-1.3,1.5H656c-0.8,0-1.3-0.7-1.3-1.5V0H661.9z"/>
	</g>
</g>
<g id="Oct10">
	<g id="WhiteKeys_10_">
		<path id="B-011_10_" fill="#FFFFFF" d="M792,52.9c0,0.6-0.5,1.1-1.2,1.1h-8c-0.7,0-1.1-0.5-1.1-1.1V35.3h2.1
			c0.8,0,1.5-0.7,1.5-1.5V0h6.7V52.9z"/>
		<path id="A-009_10_" fill="#FFFFFF" d="M780.6,54h-8.1c-0.7,0-1.1-0.5-1.1-1.1V35.3h2.1c0.9,0,1.5-0.7,1.5-1.5V0h3v33.8
			c0,0.8,0.8,1.5,1.6,1.5h2.1v17.5C781.7,53.5,781.3,54,780.6,54z"/>
		<path id="G-007_10_" fill="#FFFFFF" d="M762.2,54c-0.7,0-1.1-0.5-1.1-1.1V35.3h2.1c0.9,0,1.5-0.7,1.5-1.5V0h3.1v33.8
			c0,0.8,0.8,1.5,1.5,1.5h2.1v17.5c0,0.6-0.5,1.2-1.2,1.2H762.2z"/>
		<path id="F-005_10_" fill="#FFFFFF" d="M760,54h-8.1c-0.7,0-1.1-0.5-1.1-1.1V0h6.6v33.8c0,0.8,0.8,1.5,1.6,1.5h2.1v17.6
			C761,53.5,760.5,54,760,54z"/>
		<path id="E-004_10_" fill="#FFFFFF" d="M740.6,52.9V35.3h2.1c0.9,0,1.5-0.7,1.5-1.5V0h6.7v52.9c0,0.6-0.6,1.1-1.2,1.1h-8
			C741.1,54,740.6,53.5,740.6,52.9z"/>
		<path id="D-002_10_" fill="#FFFFFF" d="M730.3,52.9V35.3h2.1c0.9,0,1.5-0.7,1.5-1.5V0h3v33.7l0,0v0.1c0,0.8,0.8,1.5,1.5,1.5h2.1
			v17.5c0,0.6-0.3,1.2-1.1,1.2h-8.1C730.6,54,730.3,53.5,730.3,52.9z"/>
		<path id="C-000_10_" fill="#FFFFFF" d="M729.2,54h-8.1c-0.7,0-1.1-0.5-1.1-1.1V0h6.6v33.8c0,0.8,0.8,1.5,1.5,1.5h2.1v17.6
			C730.4,53.5,729.8,54,729.2,54z"/>
	</g>
	<g id="Blackkeys_10_">
		<path id="A_x23_Bb-010_10_" d="M785.2,0v33.8c0,0.8-0.7,1.5-1.4,1.5h-4.4c-0.8,0-1.4-0.7-1.4-1.5V0H785.2z"/>
		<path id="G_x23_Ab-008_10_" d="M775,0v33.8c0,0.8-0.7,1.5-1.4,1.5h-4.4c-0.8,0-1.4-0.7-1.4-1.5V0H775z"/>
		<path id="F_x23_Gb-006_10_" d="M764.7,0v33.8c0,0.8-0.7,1.5-1.4,1.5h-4.4c-0.8,0-1.4-0.7-1.4-1.5V0H764.7z"/>
		<path id="D_x23_Eb-003_10_" d="M744.1,0v33.8c0,0.8-0.7,1.5-1.4,1.5h-4.4c-0.8,0-1.4-0.7-1.4-1.5V0H744.1z"/>
		<path id="C_x23_Db-001_10_" d="M733.9,0v33.8c0,0.8-0.7,1.5-1.3,1.5H728c-0.8,0-1.3-0.7-1.3-1.5V0H733.9z"/>
	</g>
</g>
</svg>
